# xmcd CD database file
#
# Track frame offsets:
#	150
#	36600
#	46904
#	68823
#	97243
#	126246
#	162982
#	184827
#	194623
#	241404
#	259505
#
# Disc length: 3802 seconds
#
# Revision: 0
# Processed by: cddbd v1.5.2PL0 Copyright (c) Steve Scherf et al.
# Submitted via: CDex 1.51
#
DISCID=a40ed80b
DTITLE=Jae Sinnett - Off the Myopic Avenue
DYEAR=2000
DGENRE=Jazz
TTITLE0=Twist and Jarrett
TTITLE1=The Charmer's Intro
TTITLE2=Snake Charmer
TTITLE3=Seven Eleven
TTITLE4=Anticipation
TTITLE5=Big Fat Baby Hands
TTITLE6=Switch One
TTITLE7=Romantic Dis-Chord
TTITLE8=Velas
TTITLE9=The Drum Jam
TTITLE10=Off the Myopic Avenue
EXTD=YEAR: 2000
EXTT0=
EXTT1=
EXTT2=
EXTT3=
EXTT4=
EXTT5=
EXTT6=
EXTT7=
EXTT8=
EXTT9=
EXTT10=
PLAYORDER=
